<mxfile host="app.diagrams.net" modified="2023-04-02T13:51:47.912Z" agent="Mozilla/5.0 (Windows NT 10.0; Win64; x64) AppleWebKit/537.36 (KHTML, like Gecko) Chrome/110.0.0.0 Safari/537.36 OPR/96.0.0.0" etag="bzrme-1Gjaekrp2kXu37" version="21.1.2" type="device">
  <diagram name="Page-1" id="c4acf3e9-155e-7222-9cf6-157b1a14988f">
    <mxGraphModel dx="2840" dy="2194" grid="1" gridSize="10" guides="1" tooltips="1" connect="1" arrows="1" fold="1" page="1" pageScale="1" pageWidth="850" pageHeight="1100" background="none" math="0" shadow="0">
      <root>
        <mxCell id="0" />
        <mxCell id="1" parent="0" />
        <mxCell id="vIjOP-LmCYs423gfPFWZ-72" style="edgeStyle=orthogonalEdgeStyle;rounded=0;orthogonalLoop=1;jettySize=auto;html=1;exitX=1;exitY=0;exitDx=0;exitDy=0;entryX=0;entryY=0.25;entryDx=0;entryDy=0;endArrow=none;endFill=0;" parent="1" source="vIjOP-LmCYs423gfPFWZ-1" target="vIjOP-LmCYs423gfPFWZ-2" edge="1">
          <mxGeometry relative="1" as="geometry">
            <Array as="points">
              <mxPoint x="30" y="275" />
              <mxPoint x="235" y="275" />
            </Array>
          </mxGeometry>
        </mxCell>
        <mxCell id="vIjOP-LmCYs423gfPFWZ-74" style="edgeStyle=orthogonalEdgeStyle;rounded=0;orthogonalLoop=1;jettySize=auto;html=1;exitX=0.25;exitY=0;exitDx=0;exitDy=0;endArrow=none;endFill=0;" parent="1" source="vIjOP-LmCYs423gfPFWZ-1" target="vIjOP-LmCYs423gfPFWZ-13" edge="1">
          <mxGeometry relative="1" as="geometry">
            <Array as="points">
              <mxPoint x="-55" y="-50" />
              <mxPoint x="130" y="-50" />
            </Array>
          </mxGeometry>
        </mxCell>
        <mxCell id="vIjOP-LmCYs423gfPFWZ-75" style="edgeStyle=orthogonalEdgeStyle;rounded=0;orthogonalLoop=1;jettySize=auto;html=1;exitX=0.75;exitY=0;exitDx=0;exitDy=0;entryX=1;entryY=0.25;entryDx=0;entryDy=0;endArrow=none;endFill=0;" parent="1" source="vIjOP-LmCYs423gfPFWZ-1" target="vIjOP-LmCYs423gfPFWZ-14" edge="1">
          <mxGeometry relative="1" as="geometry">
            <mxPoint x="190" y="140" as="targetPoint" />
            <Array as="points">
              <mxPoint x="15" y="270" />
              <mxPoint x="20" y="270" />
              <mxPoint x="20" y="190" />
              <mxPoint x="460" y="190" />
              <mxPoint x="460" y="10" />
              <mxPoint x="350" y="10" />
            </Array>
          </mxGeometry>
        </mxCell>
        <mxCell id="vIjOP-LmCYs423gfPFWZ-76" style="edgeStyle=orthogonalEdgeStyle;rounded=0;orthogonalLoop=1;jettySize=auto;html=1;exitX=0;exitY=0.25;exitDx=0;exitDy=0;entryX=1;entryY=0.25;entryDx=0;entryDy=0;endArrow=none;endFill=0;" parent="1" source="vIjOP-LmCYs423gfPFWZ-1" target="vIjOP-LmCYs423gfPFWZ-39" edge="1">
          <mxGeometry relative="1" as="geometry">
            <Array as="points">
              <mxPoint x="-80" y="283" />
              <mxPoint x="-80" y="125" />
            </Array>
          </mxGeometry>
        </mxCell>
        <mxCell id="vIjOP-LmCYs423gfPFWZ-81" style="edgeStyle=orthogonalEdgeStyle;rounded=0;orthogonalLoop=1;jettySize=auto;html=1;exitX=0;exitY=0.5;exitDx=0;exitDy=0;entryX=1.006;entryY=0.103;entryDx=0;entryDy=0;entryPerimeter=0;endArrow=none;endFill=0;" parent="1" source="vIjOP-LmCYs423gfPFWZ-1" target="vIjOP-LmCYs423gfPFWZ-40" edge="1">
          <mxGeometry relative="1" as="geometry">
            <Array as="points">
              <mxPoint x="-80" y="305" />
              <mxPoint x="-80" y="320" />
              <mxPoint x="-239" y="320" />
            </Array>
          </mxGeometry>
        </mxCell>
        <mxCell id="vIjOP-LmCYs423gfPFWZ-84" style="edgeStyle=orthogonalEdgeStyle;rounded=0;orthogonalLoop=1;jettySize=auto;html=1;exitX=0.25;exitY=1;exitDx=0;exitDy=0;entryX=1;entryY=0.25;entryDx=0;entryDy=0;endArrow=none;endFill=0;" parent="1" source="vIjOP-LmCYs423gfPFWZ-1" target="vIjOP-LmCYs423gfPFWZ-41" edge="1">
          <mxGeometry relative="1" as="geometry">
            <Array as="points">
              <mxPoint x="-80" y="350" />
              <mxPoint x="-80" y="540" />
              <mxPoint x="-250" y="540" />
            </Array>
          </mxGeometry>
        </mxCell>
        <mxCell id="vIjOP-LmCYs423gfPFWZ-87" style="edgeStyle=orthogonalEdgeStyle;rounded=0;orthogonalLoop=1;jettySize=auto;html=1;exitX=0.5;exitY=1;exitDx=0;exitDy=0;entryX=0.45;entryY=-0.008;entryDx=0;entryDy=0;entryPerimeter=0;endArrow=none;endFill=0;" parent="1" source="vIjOP-LmCYs423gfPFWZ-1" target="vIjOP-LmCYs423gfPFWZ-16" edge="1">
          <mxGeometry relative="1" as="geometry">
            <Array as="points">
              <mxPoint x="-20" y="659" />
            </Array>
          </mxGeometry>
        </mxCell>
        <mxCell id="vIjOP-LmCYs423gfPFWZ-88" style="edgeStyle=orthogonalEdgeStyle;rounded=0;orthogonalLoop=1;jettySize=auto;html=1;exitX=1;exitY=1;exitDx=0;exitDy=0;entryX=0;entryY=0.25;entryDx=0;entryDy=0;endArrow=none;endFill=0;" parent="1" source="vIjOP-LmCYs423gfPFWZ-1" target="vIjOP-LmCYs423gfPFWZ-15" edge="1">
          <mxGeometry relative="1" as="geometry">
            <Array as="points">
              <mxPoint x="20" y="320" />
              <mxPoint x="20" y="435" />
            </Array>
          </mxGeometry>
        </mxCell>
        <mxCell id="vIjOP-LmCYs423gfPFWZ-89" style="edgeStyle=orthogonalEdgeStyle;rounded=0;orthogonalLoop=1;jettySize=auto;html=1;exitX=1;exitY=0.5;exitDx=0;exitDy=0;entryX=0;entryY=0.75;entryDx=0;entryDy=0;endArrow=none;endFill=0;" parent="1" source="vIjOP-LmCYs423gfPFWZ-1" target="vIjOP-LmCYs423gfPFWZ-2" edge="1">
          <mxGeometry relative="1" as="geometry">
            <Array as="points">
              <mxPoint x="50" y="320" />
              <mxPoint x="230" y="320" />
            </Array>
          </mxGeometry>
        </mxCell>
        <mxCell id="vIjOP-LmCYs423gfPFWZ-91" style="edgeStyle=orthogonalEdgeStyle;rounded=0;orthogonalLoop=1;jettySize=auto;html=1;exitX=0;exitY=0;exitDx=0;exitDy=0;entryX=0.874;entryY=1.019;entryDx=0;entryDy=0;entryPerimeter=0;endArrow=none;endFill=0;" parent="1" source="vIjOP-LmCYs423gfPFWZ-1" target="vIjOP-LmCYs423gfPFWZ-39" edge="1">
          <mxGeometry relative="1" as="geometry">
            <Array as="points">
              <mxPoint x="-80" y="260" />
              <mxPoint x="-80" y="190" />
              <mxPoint x="-260" y="190" />
              <mxPoint x="-260" y="171" />
            </Array>
          </mxGeometry>
        </mxCell>
        <mxCell id="vIjOP-LmCYs423gfPFWZ-92" style="edgeStyle=orthogonalEdgeStyle;rounded=0;orthogonalLoop=1;jettySize=auto;html=1;exitX=0.25;exitY=0;exitDx=0;exitDy=0;entryX=0;entryY=0.5;entryDx=0;entryDy=0;endArrow=none;endFill=0;" parent="1" source="vIjOP-LmCYs423gfPFWZ-1" target="vIjOP-LmCYs423gfPFWZ-13" edge="1">
          <mxGeometry relative="1" as="geometry" />
        </mxCell>
        <mxCell id="vIjOP-LmCYs423gfPFWZ-93" style="edgeStyle=orthogonalEdgeStyle;rounded=0;orthogonalLoop=1;jettySize=auto;html=1;exitX=0.25;exitY=0;exitDx=0;exitDy=0;endArrow=none;endFill=0;" parent="1" source="vIjOP-LmCYs423gfPFWZ-1" target="vIjOP-LmCYs423gfPFWZ-13" edge="1">
          <mxGeometry relative="1" as="geometry">
            <Array as="points">
              <mxPoint x="-55" y="70" />
              <mxPoint x="130" y="70" />
            </Array>
          </mxGeometry>
        </mxCell>
        <mxCell id="vIjOP-LmCYs423gfPFWZ-95" style="edgeStyle=orthogonalEdgeStyle;rounded=0;orthogonalLoop=1;jettySize=auto;html=1;exitX=0.25;exitY=0;exitDx=0;exitDy=0;entryX=0.839;entryY=1.047;entryDx=0;entryDy=0;entryPerimeter=0;endArrow=none;endFill=0;" parent="1" source="vIjOP-LmCYs423gfPFWZ-1" target="vIjOP-LmCYs423gfPFWZ-13" edge="1">
          <mxGeometry relative="1" as="geometry">
            <Array as="points">
              <mxPoint x="-55" y="120" />
              <mxPoint x="171" y="120" />
            </Array>
          </mxGeometry>
        </mxCell>
        <mxCell id="vIjOP-LmCYs423gfPFWZ-98" style="edgeStyle=orthogonalEdgeStyle;rounded=0;orthogonalLoop=1;jettySize=auto;html=1;exitX=0;exitY=0;exitDx=0;exitDy=0;endArrow=none;endFill=0;" parent="1" source="vIjOP-LmCYs423gfPFWZ-1" target="vIjOP-LmCYs423gfPFWZ-39" edge="1">
          <mxGeometry relative="1" as="geometry">
            <Array as="points">
              <mxPoint x="-80" y="260" />
              <mxPoint x="-80" y="240" />
              <mxPoint x="-300" y="240" />
            </Array>
          </mxGeometry>
        </mxCell>
        <mxCell id="vIjOP-LmCYs423gfPFWZ-99" style="edgeStyle=orthogonalEdgeStyle;rounded=0;orthogonalLoop=1;jettySize=auto;html=1;exitX=0.75;exitY=0;exitDx=0;exitDy=0;endArrow=none;endFill=0;" parent="1" source="vIjOP-LmCYs423gfPFWZ-1" target="vIjOP-LmCYs423gfPFWZ-14" edge="1">
          <mxGeometry relative="1" as="geometry">
            <Array as="points">
              <mxPoint x="20" y="260" />
              <mxPoint x="20" y="190" />
              <mxPoint x="460" y="190" />
              <mxPoint x="460" y="-50" />
              <mxPoint x="290" y="-50" />
            </Array>
          </mxGeometry>
        </mxCell>
        <mxCell id="vIjOP-LmCYs423gfPFWZ-103" style="edgeStyle=orthogonalEdgeStyle;rounded=0;orthogonalLoop=1;jettySize=auto;html=1;exitX=0;exitY=0.622;exitDx=0;exitDy=0;entryX=0.75;entryY=1;entryDx=0;entryDy=0;exitPerimeter=0;endArrow=none;endFill=0;" parent="1" source="vIjOP-LmCYs423gfPFWZ-1" target="vIjOP-LmCYs423gfPFWZ-40" edge="1">
          <mxGeometry relative="1" as="geometry">
            <Array as="points">
              <mxPoint x="-90" y="320" />
              <mxPoint x="-100" y="320" />
              <mxPoint x="-100" y="390" />
              <mxPoint x="-260" y="390" />
              <mxPoint x="-260" y="370" />
            </Array>
          </mxGeometry>
        </mxCell>
        <mxCell id="vIjOP-LmCYs423gfPFWZ-104" style="edgeStyle=orthogonalEdgeStyle;rounded=0;orthogonalLoop=1;jettySize=auto;html=1;exitX=0;exitY=0.5;exitDx=0;exitDy=0;entryX=0.5;entryY=1;entryDx=0;entryDy=0;endArrow=none;endFill=0;" parent="1" source="vIjOP-LmCYs423gfPFWZ-1" target="vIjOP-LmCYs423gfPFWZ-40" edge="1">
          <mxGeometry relative="1" as="geometry">
            <Array as="points">
              <mxPoint x="-90" y="320" />
              <mxPoint x="-100" y="320" />
              <mxPoint x="-100" y="440" />
              <mxPoint x="-300" y="440" />
            </Array>
          </mxGeometry>
        </mxCell>
        <mxCell id="vIjOP-LmCYs423gfPFWZ-105" style="edgeStyle=orthogonalEdgeStyle;rounded=0;orthogonalLoop=1;jettySize=auto;html=1;exitX=0.25;exitY=1;exitDx=0;exitDy=0;entryX=0.75;entryY=1;entryDx=0;entryDy=0;endArrow=none;endFill=0;" parent="1" source="vIjOP-LmCYs423gfPFWZ-1" target="vIjOP-LmCYs423gfPFWZ-41" edge="1">
          <mxGeometry relative="1" as="geometry">
            <Array as="points">
              <mxPoint x="-80" y="350" />
              <mxPoint x="-80" y="610" />
              <mxPoint x="-260" y="610" />
              <mxPoint x="-260" y="588" />
            </Array>
          </mxGeometry>
        </mxCell>
        <mxCell id="vIjOP-LmCYs423gfPFWZ-106" style="edgeStyle=orthogonalEdgeStyle;rounded=0;orthogonalLoop=1;jettySize=auto;html=1;exitX=0.25;exitY=1;exitDx=0;exitDy=0;entryX=0.5;entryY=1;entryDx=0;entryDy=0;endArrow=none;endFill=0;" parent="1" source="vIjOP-LmCYs423gfPFWZ-1" target="vIjOP-LmCYs423gfPFWZ-41" edge="1">
          <mxGeometry relative="1" as="geometry">
            <Array as="points">
              <mxPoint x="-80" y="350" />
              <mxPoint x="-80" y="680" />
              <mxPoint x="-300" y="680" />
            </Array>
          </mxGeometry>
        </mxCell>
        <mxCell id="vIjOP-LmCYs423gfPFWZ-114" style="edgeStyle=orthogonalEdgeStyle;rounded=0;orthogonalLoop=1;jettySize=auto;html=1;exitX=0.75;exitY=1;exitDx=0;exitDy=0;entryX=0;entryY=0.75;entryDx=0;entryDy=0;endArrow=none;endFill=0;" parent="1" source="vIjOP-LmCYs423gfPFWZ-1" target="vIjOP-LmCYs423gfPFWZ-15" edge="1">
          <mxGeometry relative="1" as="geometry">
            <Array as="points">
              <mxPoint x="20" y="350" />
              <mxPoint x="20" y="490" />
              <mxPoint x="220" y="490" />
            </Array>
          </mxGeometry>
        </mxCell>
        <mxCell id="vIjOP-LmCYs423gfPFWZ-118" style="edgeStyle=orthogonalEdgeStyle;rounded=0;orthogonalLoop=1;jettySize=auto;html=1;exitX=0.75;exitY=1;exitDx=0;exitDy=0;entryX=1;entryY=0.25;entryDx=0;entryDy=0;endArrow=none;endFill=0;" parent="1" source="vIjOP-LmCYs423gfPFWZ-1" target="vIjOP-LmCYs423gfPFWZ-15" edge="1">
          <mxGeometry relative="1" as="geometry">
            <Array as="points">
              <mxPoint x="20" y="350" />
              <mxPoint x="20" y="385" />
              <mxPoint x="420" y="385" />
              <mxPoint x="420" y="439" />
            </Array>
          </mxGeometry>
        </mxCell>
        <mxCell id="vIjOP-LmCYs423gfPFWZ-129" style="edgeStyle=orthogonalEdgeStyle;rounded=0;orthogonalLoop=1;jettySize=auto;html=1;exitX=0.5;exitY=1;exitDx=0;exitDy=0;entryX=1.013;entryY=0.639;entryDx=0;entryDy=0;entryPerimeter=0;endArrow=none;endFill=0;" parent="1" source="vIjOP-LmCYs423gfPFWZ-1" target="vIjOP-LmCYs423gfPFWZ-16" edge="1">
          <mxGeometry relative="1" as="geometry">
            <Array as="points">
              <mxPoint x="-20" y="505" />
              <mxPoint x="90" y="505" />
              <mxPoint x="90" y="670" />
              <mxPoint x="62" y="670" />
            </Array>
          </mxGeometry>
        </mxCell>
        <mxCell id="vIjOP-LmCYs423gfPFWZ-1" value="main" style="html=1;whiteSpace=wrap;" parent="1" vertex="1">
          <mxGeometry x="-90" y="260" width="140" height="90" as="geometry" />
        </mxCell>
        <mxCell id="vIjOP-LmCYs423gfPFWZ-2" value="s : Model.Spring" style="html=1;whiteSpace=wrap;" parent="1" vertex="1">
          <mxGeometry x="230" y="258.34" width="120" height="71.66" as="geometry" />
        </mxCell>
        <mxCell id="vIjOP-LmCYs423gfPFWZ-13" value="p1 : Model.Pump" style="rounded=0;whiteSpace=wrap;html=1;" parent="1" vertex="1">
          <mxGeometry x="70" y="-20" width="120" height="60" as="geometry" />
        </mxCell>
        <mxCell id="vIjOP-LmCYs423gfPFWZ-14" value="p2 : Model.Pump" style="rounded=0;whiteSpace=wrap;html=1;" parent="1" vertex="1">
          <mxGeometry x="230" y="-20" width="120" height="60" as="geometry" />
        </mxCell>
        <mxCell id="vIjOP-LmCYs423gfPFWZ-123" style="edgeStyle=orthogonalEdgeStyle;rounded=0;orthogonalLoop=1;jettySize=auto;html=1;exitX=1;exitY=0.5;exitDx=0;exitDy=0;endArrow=none;endFill=0;" parent="1" source="vIjOP-LmCYs423gfPFWZ-15" edge="1">
          <mxGeometry relative="1" as="geometry">
            <mxPoint x="340" y="700" as="targetPoint" />
            <Array as="points">
              <mxPoint x="420" y="460" />
              <mxPoint x="420" y="693" />
            </Array>
          </mxGeometry>
        </mxCell>
        <mxCell id="vIjOP-LmCYs423gfPFWZ-126" style="edgeStyle=orthogonalEdgeStyle;rounded=0;orthogonalLoop=1;jettySize=auto;html=1;exitX=0.5;exitY=1;exitDx=0;exitDy=0;entryX=0.5;entryY=0;entryDx=0;entryDy=0;endArrow=none;endFill=0;" parent="1" source="vIjOP-LmCYs423gfPFWZ-15" target="vIjOP-LmCYs423gfPFWZ-52" edge="1">
          <mxGeometry relative="1" as="geometry">
            <Array as="points" />
          </mxGeometry>
        </mxCell>
        <mxCell id="vIjOP-LmCYs423gfPFWZ-15" value="c : Model.Cistern" style="rounded=0;whiteSpace=wrap;html=1;" parent="1" vertex="1">
          <mxGeometry x="220" y="419.17" width="130" height="80.83" as="geometry" />
        </mxCell>
        <mxCell id="vIjOP-LmCYs423gfPFWZ-132" style="edgeStyle=orthogonalEdgeStyle;rounded=0;orthogonalLoop=1;jettySize=auto;html=1;exitX=0.75;exitY=1;exitDx=0;exitDy=0;entryX=0.121;entryY=1.002;entryDx=0;entryDy=0;entryPerimeter=0;endArrow=none;endFill=0;" parent="1" source="vIjOP-LmCYs423gfPFWZ-16" target="vIjOP-LmCYs423gfPFWZ-15" edge="1">
          <mxGeometry relative="1" as="geometry">
            <Array as="points">
              <mxPoint x="30" y="740" />
              <mxPoint x="210" y="740" />
              <mxPoint x="210" y="560" />
              <mxPoint x="236" y="560" />
            </Array>
          </mxGeometry>
        </mxCell>
        <mxCell id="vIjOP-LmCYs423gfPFWZ-16" value="m : Model.Mechanic" style="rounded=0;whiteSpace=wrap;html=1;" parent="1" vertex="1">
          <mxGeometry x="-60" y="659.5" width="120" height="60" as="geometry" />
        </mxCell>
        <mxCell id="vIjOP-LmCYs423gfPFWZ-24" value="1. &amp;lt;&amp;lt;create&amp;gt;&amp;gt;" style="text;html=1;align=center;verticalAlign=middle;resizable=0;points=[];autosize=1;strokeColor=none;fillColor=none;" parent="1" vertex="1">
          <mxGeometry x="80" y="239.17000000000002" width="100" height="30" as="geometry" />
        </mxCell>
        <mxCell id="vIjOP-LmCYs423gfPFWZ-26" value="2. &amp;lt;&amp;lt;create&amp;gt;&amp;gt;" style="text;html=1;align=center;verticalAlign=middle;resizable=0;points=[];autosize=1;strokeColor=none;fillColor=none;" parent="1" vertex="1">
          <mxGeometry x="-40" y="-90" width="100" height="30" as="geometry" />
        </mxCell>
        <mxCell id="vIjOP-LmCYs423gfPFWZ-27" value="" style="endArrow=classic;html=1;rounded=0;" parent="1" edge="1">
          <mxGeometry width="50" height="50" relative="1" as="geometry">
            <mxPoint x="-20" y="-60" as="sourcePoint" />
            <mxPoint x="40" y="-60" as="targetPoint" />
          </mxGeometry>
        </mxCell>
        <mxCell id="vIjOP-LmCYs423gfPFWZ-28" value="3. &amp;lt;&amp;lt;create&amp;gt;&amp;gt;" style="text;html=1;align=center;verticalAlign=middle;resizable=0;points=[];autosize=1;strokeColor=none;fillColor=none;" parent="1" vertex="1">
          <mxGeometry x="345" y="-90" width="100" height="30" as="geometry" />
        </mxCell>
        <mxCell id="vIjOP-LmCYs423gfPFWZ-29" value="" style="endArrow=classic;html=1;rounded=0;" parent="1" edge="1">
          <mxGeometry width="50" height="50" relative="1" as="geometry">
            <mxPoint x="420" y="-59.71000000000001" as="sourcePoint" />
            <mxPoint x="370" y="-60" as="targetPoint" />
          </mxGeometry>
        </mxCell>
        <mxCell id="vIjOP-LmCYs423gfPFWZ-30" value="4. &amp;lt;&amp;lt;create&amp;gt;&amp;gt;" style="text;html=1;align=center;verticalAlign=middle;resizable=0;points=[];autosize=1;strokeColor=none;fillColor=none;" parent="1" vertex="1">
          <mxGeometry x="-220" y="79.99999999999999" width="100" height="30" as="geometry" />
        </mxCell>
        <mxCell id="vIjOP-LmCYs423gfPFWZ-31" value="" style="endArrow=classic;html=1;rounded=0;" parent="1" edge="1">
          <mxGeometry width="50" height="50" relative="1" as="geometry">
            <mxPoint x="-147.5" y="110.82999999999996" as="sourcePoint" />
            <mxPoint x="-192.5" y="111.66" as="targetPoint" />
          </mxGeometry>
        </mxCell>
        <mxCell id="vIjOP-LmCYs423gfPFWZ-37" value="9. AddPipe(pipe1)" style="text;html=1;align=center;verticalAlign=middle;resizable=0;points=[];autosize=1;strokeColor=none;fillColor=none;" parent="1" vertex="1">
          <mxGeometry x="70" y="280" width="120" height="30" as="geometry" />
        </mxCell>
        <mxCell id="vIjOP-LmCYs423gfPFWZ-38" value="" style="endArrow=classic;html=1;rounded=0;" parent="1" edge="1">
          <mxGeometry width="50" height="50" relative="1" as="geometry">
            <mxPoint x="95" y="310" as="sourcePoint" />
            <mxPoint x="165" y="310" as="targetPoint" />
          </mxGeometry>
        </mxCell>
        <mxCell id="vIjOP-LmCYs423gfPFWZ-39" value="pipe1 : Model.Pipe" style="rounded=0;whiteSpace=wrap;html=1;" parent="1" vertex="1">
          <mxGeometry x="-360" y="110" width="120" height="60" as="geometry" />
        </mxCell>
        <mxCell id="vIjOP-LmCYs423gfPFWZ-40" value="pipe2 : Model.Pipe" style="rounded=0;whiteSpace=wrap;html=1;" parent="1" vertex="1">
          <mxGeometry x="-360" y="310" width="120" height="60" as="geometry" />
        </mxCell>
        <mxCell id="vIjOP-LmCYs423gfPFWZ-41" value="pipe3 : Model.Pipe" style="rounded=0;whiteSpace=wrap;html=1;" parent="1" vertex="1">
          <mxGeometry x="-360" y="528.34" width="120" height="60" as="geometry" />
        </mxCell>
        <mxCell id="vIjOP-LmCYs423gfPFWZ-44" value="7. &amp;lt;&amp;lt;create&amp;gt;&amp;gt;" style="text;html=1;align=center;verticalAlign=middle;resizable=0;points=[];autosize=1;strokeColor=none;fillColor=none;" parent="1" vertex="1">
          <mxGeometry x="-20" y="560" width="100" height="30" as="geometry" />
        </mxCell>
        <mxCell id="vIjOP-LmCYs423gfPFWZ-45" value="" style="endArrow=classic;html=1;rounded=0;" parent="1" edge="1">
          <mxGeometry width="50" height="50" relative="1" as="geometry">
            <mxPoint x="-10" y="540" as="sourcePoint" />
            <mxPoint x="-10" y="610" as="targetPoint" />
          </mxGeometry>
        </mxCell>
        <mxCell id="vIjOP-LmCYs423gfPFWZ-46" value="8. &amp;lt;&amp;lt;create&amp;gt;&amp;gt;" style="text;html=1;align=center;verticalAlign=middle;resizable=0;points=[];autosize=1;strokeColor=none;fillColor=none;" parent="1" vertex="1">
          <mxGeometry x="60" y="400" width="100" height="30" as="geometry" />
        </mxCell>
        <mxCell id="vIjOP-LmCYs423gfPFWZ-47" value="" style="endArrow=classic;html=1;rounded=0;" parent="1" edge="1">
          <mxGeometry width="50" height="50" relative="1" as="geometry">
            <mxPoint x="75" y="430" as="sourcePoint" />
            <mxPoint x="145" y="430" as="targetPoint" />
          </mxGeometry>
        </mxCell>
        <mxCell id="vIjOP-LmCYs423gfPFWZ-52" value="created : Model.Pipe" style="rounded=0;whiteSpace=wrap;html=1;" parent="1" vertex="1">
          <mxGeometry x="225" y="670" width="120" height="60" as="geometry" />
        </mxCell>
        <mxCell id="vIjOP-LmCYs423gfPFWZ-54" value="10. AddWaterNode(s)" style="text;html=1;align=center;verticalAlign=middle;resizable=0;points=[];autosize=1;strokeColor=none;fillColor=none;" parent="1" vertex="1">
          <mxGeometry x="-240" y="144.58000000000004" width="140" height="30" as="geometry" />
        </mxCell>
        <mxCell id="vIjOP-LmCYs423gfPFWZ-57" value="11. AddPipe(pipe1)" style="text;html=1;align=center;verticalAlign=middle;resizable=0;points=[];autosize=1;strokeColor=none;fillColor=none;" parent="1" vertex="1">
          <mxGeometry x="-50" y="-31" width="120" height="30" as="geometry" />
        </mxCell>
        <mxCell id="vIjOP-LmCYs423gfPFWZ-58" value="" style="endArrow=classic;html=1;rounded=0;" parent="1" edge="1">
          <mxGeometry width="50" height="50" relative="1" as="geometry">
            <mxPoint x="-142.5" y="174.5800000000001" as="sourcePoint" />
            <mxPoint x="-197.5" y="175.41000000000003" as="targetPoint" />
          </mxGeometry>
        </mxCell>
        <mxCell id="vIjOP-LmCYs423gfPFWZ-59" value="" style="endArrow=classic;html=1;rounded=0;" parent="1" edge="1">
          <mxGeometry width="50" height="50" relative="1" as="geometry">
            <mxPoint x="-25" y="-1" as="sourcePoint" />
            <mxPoint x="45" y="-1" as="targetPoint" />
          </mxGeometry>
        </mxCell>
        <mxCell id="vIjOP-LmCYs423gfPFWZ-61" value="22. &amp;lt;&amp;lt;create&amp;gt;&amp;gt;" style="text;html=1;align=center;verticalAlign=middle;resizable=0;points=[];autosize=1;strokeColor=none;fillColor=none;" parent="1" vertex="1">
          <mxGeometry x="430" y="540" width="100" height="30" as="geometry" />
        </mxCell>
        <mxCell id="vIjOP-LmCYs423gfPFWZ-62" value="" style="endArrow=classic;html=1;rounded=0;" parent="1" edge="1">
          <mxGeometry width="50" height="50" relative="1" as="geometry">
            <mxPoint x="430" y="520" as="sourcePoint" />
            <mxPoint x="430" y="590" as="targetPoint" />
          </mxGeometry>
        </mxCell>
        <mxCell id="vIjOP-LmCYs423gfPFWZ-73" value="" style="endArrow=classic;html=1;rounded=0;" parent="1" edge="1">
          <mxGeometry width="50" height="50" relative="1" as="geometry">
            <mxPoint x="95" y="269.17" as="sourcePoint" />
            <mxPoint x="165" y="269.17" as="targetPoint" />
          </mxGeometry>
        </mxCell>
        <mxCell id="vIjOP-LmCYs423gfPFWZ-82" value="5. &amp;lt;&amp;lt;create&amp;gt;&amp;gt;" style="text;html=1;align=center;verticalAlign=middle;resizable=0;points=[];autosize=1;strokeColor=none;fillColor=none;" parent="1" vertex="1">
          <mxGeometry x="-220" y="280" width="100" height="30" as="geometry" />
        </mxCell>
        <mxCell id="vIjOP-LmCYs423gfPFWZ-83" value="" style="endArrow=classic;html=1;rounded=0;" parent="1" edge="1">
          <mxGeometry width="50" height="50" relative="1" as="geometry">
            <mxPoint x="-147.5" y="310.83" as="sourcePoint" />
            <mxPoint x="-192.5" y="311.66" as="targetPoint" />
          </mxGeometry>
        </mxCell>
        <mxCell id="vIjOP-LmCYs423gfPFWZ-85" value="6. &amp;lt;&amp;lt;create&amp;gt;&amp;gt;" style="text;html=1;align=center;verticalAlign=middle;resizable=0;points=[];autosize=1;strokeColor=none;fillColor=none;" parent="1" vertex="1">
          <mxGeometry x="-220" y="498.34" width="100" height="30" as="geometry" />
        </mxCell>
        <mxCell id="vIjOP-LmCYs423gfPFWZ-86" value="" style="endArrow=classic;html=1;rounded=0;" parent="1" edge="1">
          <mxGeometry width="50" height="50" relative="1" as="geometry">
            <mxPoint x="-147.5" y="529.17" as="sourcePoint" />
            <mxPoint x="-192.5" y="530" as="targetPoint" />
          </mxGeometry>
        </mxCell>
        <mxCell id="vIjOP-LmCYs423gfPFWZ-94" value="13. AddPipe(pipe2)" style="text;html=1;align=center;verticalAlign=middle;resizable=0;points=[];autosize=1;strokeColor=none;fillColor=none;" parent="1" vertex="1">
          <mxGeometry x="-55" y="30" width="130" height="30" as="geometry" />
        </mxCell>
        <mxCell id="vIjOP-LmCYs423gfPFWZ-96" value="17. AddPipe(pipe3)" style="text;html=1;align=center;verticalAlign=middle;resizable=0;points=[];autosize=1;strokeColor=none;fillColor=none;" parent="1" vertex="1">
          <mxGeometry x="-55" y="80" width="130" height="30" as="geometry" />
        </mxCell>
        <mxCell id="vIjOP-LmCYs423gfPFWZ-101" value="15. AddPipe(pipe2)" style="text;html=1;align=center;verticalAlign=middle;resizable=0;points=[];autosize=1;strokeColor=none;fillColor=none;" parent="1" vertex="1">
          <mxGeometry x="340" y="-30" width="130" height="30" as="geometry" />
        </mxCell>
        <mxCell id="vIjOP-LmCYs423gfPFWZ-108" value="12. AddWaterNode(p1)" style="text;html=1;align=center;verticalAlign=middle;resizable=0;points=[];autosize=1;strokeColor=none;fillColor=none;" parent="1" vertex="1">
          <mxGeometry x="-245" y="200.00000000000006" width="150" height="30" as="geometry" />
        </mxCell>
        <mxCell id="vIjOP-LmCYs423gfPFWZ-109" value="" style="endArrow=classic;html=1;rounded=0;" parent="1" edge="1">
          <mxGeometry width="50" height="50" relative="1" as="geometry">
            <mxPoint x="-142.5" y="230.0000000000001" as="sourcePoint" />
            <mxPoint x="-197.5" y="230.83000000000004" as="targetPoint" />
          </mxGeometry>
        </mxCell>
        <mxCell id="vIjOP-LmCYs423gfPFWZ-110" value="14. AddWaterNode(p1)" style="text;html=1;align=center;verticalAlign=middle;resizable=0;points=[];autosize=1;strokeColor=none;fillColor=none;" parent="1" vertex="1">
          <mxGeometry x="-245" y="350" width="150" height="30" as="geometry" />
        </mxCell>
        <mxCell id="vIjOP-LmCYs423gfPFWZ-111" value="" style="endArrow=classic;html=1;rounded=0;" parent="1" edge="1">
          <mxGeometry width="50" height="50" relative="1" as="geometry">
            <mxPoint x="-142.5" y="380.0000000000001" as="sourcePoint" />
            <mxPoint x="-197.5" y="380.83000000000004" as="targetPoint" />
          </mxGeometry>
        </mxCell>
        <mxCell id="vIjOP-LmCYs423gfPFWZ-112" value="16. AddWaterNode(p2)" style="text;html=1;align=center;verticalAlign=middle;resizable=0;points=[];autosize=1;strokeColor=none;fillColor=none;" parent="1" vertex="1">
          <mxGeometry x="-245" y="400" width="150" height="30" as="geometry" />
        </mxCell>
        <mxCell id="vIjOP-LmCYs423gfPFWZ-113" value="" style="endArrow=classic;html=1;rounded=0;" parent="1" edge="1">
          <mxGeometry width="50" height="50" relative="1" as="geometry">
            <mxPoint x="-142.5" y="430.0000000000001" as="sourcePoint" />
            <mxPoint x="-197.5" y="430.83000000000004" as="targetPoint" />
          </mxGeometry>
        </mxCell>
        <mxCell id="vIjOP-LmCYs423gfPFWZ-115" value="19. AddPipe(pipe3)" style="text;html=1;align=center;verticalAlign=middle;resizable=0;points=[];autosize=1;strokeColor=none;fillColor=none;" parent="1" vertex="1">
          <mxGeometry x="55" y="450" width="130" height="30" as="geometry" />
        </mxCell>
        <mxCell id="vIjOP-LmCYs423gfPFWZ-116" value="18. AddWaterNode(p1)" style="text;html=1;align=center;verticalAlign=middle;resizable=0;points=[];autosize=1;strokeColor=none;fillColor=none;" parent="1" vertex="1">
          <mxGeometry x="-240" y="570" width="150" height="30" as="geometry" />
        </mxCell>
        <mxCell id="vIjOP-LmCYs423gfPFWZ-117" value="" style="endArrow=classic;html=1;rounded=0;" parent="1" edge="1">
          <mxGeometry width="50" height="50" relative="1" as="geometry">
            <mxPoint x="-137.5" y="600.0000000000001" as="sourcePoint" />
            <mxPoint x="-192.5" y="600.83" as="targetPoint" />
          </mxGeometry>
        </mxCell>
        <mxCell id="vIjOP-LmCYs423gfPFWZ-119" value="20. AddWaterNode(c)" style="text;html=1;align=center;verticalAlign=middle;resizable=0;points=[];autosize=1;strokeColor=none;fillColor=none;" parent="1" vertex="1">
          <mxGeometry x="-235" y="640" width="140" height="30" as="geometry" />
        </mxCell>
        <mxCell id="vIjOP-LmCYs423gfPFWZ-120" value="" style="endArrow=classic;html=1;rounded=0;" parent="1" edge="1">
          <mxGeometry width="50" height="50" relative="1" as="geometry">
            <mxPoint x="-137.5" y="670.0000000000001" as="sourcePoint" />
            <mxPoint x="-192.5" y="670.83" as="targetPoint" />
          </mxGeometry>
        </mxCell>
        <mxCell id="vIjOP-LmCYs423gfPFWZ-121" value="21. GeneratePickupables()" style="text;html=1;align=center;verticalAlign=middle;resizable=0;points=[];autosize=1;strokeColor=none;fillColor=none;" parent="1" vertex="1">
          <mxGeometry x="215" y="348.82" width="170" height="30" as="geometry" />
        </mxCell>
        <mxCell id="vIjOP-LmCYs423gfPFWZ-122" value="" style="endArrow=classic;html=1;rounded=0;" parent="1" edge="1">
          <mxGeometry width="50" height="50" relative="1" as="geometry">
            <mxPoint x="265" y="378.82" as="sourcePoint" />
            <mxPoint x="335" y="378.82" as="targetPoint" />
          </mxGeometry>
        </mxCell>
        <mxCell id="vIjOP-LmCYs423gfPFWZ-127" value="23. AddWaterNode(c)" style="text;html=1;align=center;verticalAlign=middle;resizable=0;points=[];autosize=1;strokeColor=none;fillColor=none;" parent="1" vertex="1">
          <mxGeometry x="280" y="540" width="140" height="30" as="geometry" />
        </mxCell>
        <mxCell id="vIjOP-LmCYs423gfPFWZ-128" value="" style="endArrow=classic;html=1;rounded=0;" parent="1" edge="1">
          <mxGeometry width="50" height="50" relative="1" as="geometry">
            <mxPoint x="290" y="530" as="sourcePoint" />
            <mxPoint x="290" y="590" as="targetPoint" />
          </mxGeometry>
        </mxCell>
        <mxCell id="vIjOP-LmCYs423gfPFWZ-130" value="24. Move(c)" style="text;html=1;align=center;verticalAlign=middle;resizable=0;points=[];autosize=1;strokeColor=none;fillColor=none;" parent="1" vertex="1">
          <mxGeometry x="95" y="560" width="90" height="30" as="geometry" />
        </mxCell>
        <mxCell id="vIjOP-LmCYs423gfPFWZ-131" value="" style="endArrow=classic;html=1;rounded=0;" parent="1" edge="1">
          <mxGeometry width="50" height="50" relative="1" as="geometry">
            <mxPoint x="100" y="540" as="sourcePoint" />
            <mxPoint x="100" y="610" as="targetPoint" />
          </mxGeometry>
        </mxCell>
        <mxCell id="vIjOP-LmCYs423gfPFWZ-133" value="25. PlayerEnter(m)" style="text;html=1;align=center;verticalAlign=middle;resizable=0;points=[];autosize=1;strokeColor=none;fillColor=none;" parent="1" vertex="1">
          <mxGeometry x="70" y="698.8199999999999" width="120" height="30" as="geometry" />
        </mxCell>
        <mxCell id="vIjOP-LmCYs423gfPFWZ-134" value="" style="endArrow=classic;html=1;rounded=0;" parent="1" edge="1">
          <mxGeometry width="50" height="50" relative="1" as="geometry">
            <mxPoint x="95" y="728.8199999999999" as="sourcePoint" />
            <mxPoint x="165" y="728.8199999999999" as="targetPoint" />
          </mxGeometry>
        </mxCell>
        <mxCell id="vIjOP-LmCYs423gfPFWZ-135" value="" style="endArrow=classic;html=1;rounded=0;" parent="1" edge="1">
          <mxGeometry width="50" height="50" relative="1" as="geometry">
            <mxPoint x="75" y="480" as="sourcePoint" />
            <mxPoint x="145" y="480" as="targetPoint" />
          </mxGeometry>
        </mxCell>
        <mxCell id="vIjOP-LmCYs423gfPFWZ-137" value="" style="endArrow=classic;html=1;rounded=0;" parent="1" edge="1">
          <mxGeometry width="50" height="50" relative="1" as="geometry">
            <mxPoint x="-25" y="108.82" as="sourcePoint" />
            <mxPoint x="45" y="108.82" as="targetPoint" />
          </mxGeometry>
        </mxCell>
        <mxCell id="vIjOP-LmCYs423gfPFWZ-138" value="" style="endArrow=classic;html=1;rounded=0;" parent="1" edge="1">
          <mxGeometry width="50" height="50" relative="1" as="geometry">
            <mxPoint x="-25" y="60" as="sourcePoint" />
            <mxPoint x="45" y="60" as="targetPoint" />
          </mxGeometry>
        </mxCell>
        <mxCell id="vIjOP-LmCYs423gfPFWZ-140" value="" style="endArrow=classic;html=1;rounded=0;" parent="1" edge="1">
          <mxGeometry width="50" height="50" relative="1" as="geometry">
            <mxPoint x="420" y="-1.8900000000000077" as="sourcePoint" />
            <mxPoint x="370" y="-2.1799999999999997" as="targetPoint" />
          </mxGeometry>
        </mxCell>
        <mxCell id="6hVKZMIilRhy27HZkqrv-1" value="Model.Pipe pickup and placedown from Model.Cistern, Map creation" style="shape=umlFrame;whiteSpace=wrap;html=1;pointerEvents=0;width=305;height=25;" vertex="1" parent="1">
          <mxGeometry x="-425" y="-115" width="1055" height="875" as="geometry" />
        </mxCell>
      </root>
    </mxGraphModel>
  </diagram>
</mxfile>
